<svg width="1200" height="600" viewBox="0 0 1200 600" fill="none" xmlns="http://www.w3.org/2000/svg">
  <rect width="1200" height="600" rx="24" fill="#CFE3F6" />
  <g fill="#91B6D6">
    <path d="M95 200L190 150L310 160L360 210L300 250L220 240L170 270L120 260Z" />
    <path d="M260 300L330 280L390 300L430 360L380 410L300 390L250 340Z" />
    <path d="M420 170L520 150L600 170L610 210L560 230L470 210Z" />
    <path d="M500 260L600 250L660 280L640 340L560 350L500 310Z" />
    <path d="M680 180L760 160L820 170L850 220L780 240L700 220Z" />
    <path d="M720 260L800 250L860 280L850 330L770 330L720 300Z" />
    <path d="M870 170L980 160L1070 190L1100 240L1030 260L930 230Z" />
    <path d="M900 280L1010 280L1080 320L1050 370L960 360L900 320Z" />
    <path d="M980 400L1080 410L1120 450L1080 500L990 480Z" />
    <path d="M720 380L820 370L860 400L840 440L760 440L710 410Z" />
  </g>
  <rect x="40" y="40" width="1120" height="520" rx="28" stroke="#E6F1FB" stroke-width="2" />
</svg>
